<?xml version="1.0" standalone="no"?>
<!DOCTYPE svg PUBLIC "-//W3C//DTD SVG 20010904//EN"
 "http://www.w3.org/TR/2001/REC-SVG-20010904/DTD/svg10.dtd">
<svg version="1.0" xmlns="http://www.w3.org/2000/svg"
 width="16.000000pt" height="16.000000pt" viewBox="0 0 16.000000 16.000000"
 preserveAspectRatio="xMidYMid meet">
<metadata>
Created by potrace 1.11, written by Peter Selinger 2001-2013
</metadata>
<g transform="translate(0.000000,16.000000) scale(0.004571,-0.004571)"
fill="#000000" stroke="none">
<path d="M1370 3103 c-14 -2 -108 -25 -210 -49 -102 -25 -232 -56 -290 -70
-192 -46 -215 -61 -225 -155 -3 -30 -8 -79 -11 -109 -3 -30 -7 -66 -9 -80 -2
-14 -7 -49 -10 -79 -4 -30 -9 -63 -11 -75 -2 -12 -9 -50 -14 -86 -15 -93 -18
-108 -24 -128 -3 -9 -7 -28 -10 -42 -12 -57 -24 -97 -39 -130 -78 -174 -94
-401 -41 -579 10 -36 13 -61 7 -75 -5 -12 -8 -117 -7 -234 1 -222 8 -262 44
-262 63 0 122 -61 126 -130 1 -28 -6 -51 -26 -82 -26 -41 -83 -101 -65 -68 6
11 4 11 -11 -2 -24 -21 -187 -40 -312 -37 -50 1 -96 -2 -108 -9 -12 -6 -24 -8
-28 -5 -3 3 -6 0 -6 -8 0 -8 -11 -24 -24 -36 -29 -28 -38 -69 -19 -89 8 -8 17
-14 21 -15 4 0 14 -2 22 -4 14 -2 105 -6 455 -21 72 -2 171 -7 220 -9 519 -24
1713 -24 1955 0 19 2 80 6 135 10 55 4 102 8 105 10 3 1 35 6 71 9 37 4 116
19 175 33 122 28 131 29 158 18 16 -7 18 -5 13 14 -4 18 -2 21 14 16 22 -7 24
6 8 37 -10 19 -9 20 15 14 24 -6 26 -4 20 18 -5 22 -3 24 17 19 19 -5 21 -3
16 16 -4 18 -2 21 14 16 25 -8 25 10 -1 42 -11 14 -20 31 -20 37 0 17 -67 143
-96 181 -24 33 -25 34 -6 44 11 6 21 9 23 6 2 -2 2 19 1 46 -2 27 -8 49 -12
49 -4 0 1 17 11 37 19 37 19 63 2 148 -5 28 -32 74 -59 102 -29 30 -136 87
-304 162 -521 233 -637 291 -810 407 -114 77 -215 168 -204 185 4 7 3 9 -4 6
-26 -17 -136 185 -210 388 -22 61 -56 180 -76 265 -21 85 -46 174 -57 196 -26
53 -74 103 -117 121 -36 15 -132 24 -172 16z m40 -1940 c116 -42 157 -60 345
-148 76 -35 172 -79 220 -100 49 -21 125 -36 215 -42 47 -3 86 -7 88 -8 1 -1
5 -31 9 -67 5 -57 3 -71 -17 -106 -14 -24 -36 -46 -54 -54 -24 -10 -159 -13
-632 -13 l-600 0 -42 28 c-72 47 -93 123 -67 235 l8 32 96 -6 c146 -10 155
-10 169 4 8 7 18 9 24 6 6 -4 8 -3 5 3 -3 5 -2 25 3 44 10 40 16 80 25 169 4
36 9 69 12 73 8 13 55 1 193 -50z m-533 -230 c-8 -7 -77 -6 -85 2 -3 3 16 5
43 5 27 0 45 -3 42 -7z m2338 -51 c14 -20 20 -43 20 -89 0 -72 -19 -105 -81
-137 -36 -20 -56 -21 -296 -21 -243 0 -258 1 -285 21 -42 30 -73 99 -73 161
l0 53 73 1 c39 0 97 2 127 4 30 2 96 7 145 10 130 8 260 17 262 19 1 0 21 2
45 3 37 2 46 -1 63 -25z"/>
</g>
</svg>
